<svg width="20" height="20" viewBox="0 0 40 28" fill="none" xmlns="http://www.w3.org/2000/svg">
<path fill-rule="evenodd" clip-rule="evenodd" d="M29.9299 14.0801H36.68C38.5136 14.0801 40 12.5937 40 10.7601C40 8.9266 38.5136 7.4402 36.68 7.4402H19.7544L22.0402 6.6042C24.2411 5.7993 24.8747 2.9892 23.2321 1.3177C22.3479 0.4179 21.0201 0.116599 19.8342 0.546699L7.8501 4.8924C3.13807 6.6011 0 11.0771 0 16.0894C0 22.6674 5.3325 27.9999 11.9105 27.9999H22.974C24.6308 27.9999 25.974 26.6568 25.974 24.9999V24.36C25.974 24.0093 25.9138 23.6727 25.8032 23.36H26.3448C28.0016 23.36 29.3448 22.0168 29.3448 20.36V19.72C29.3448 19.1357 29.1777 18.5903 28.8887 18.1292C29.6241 17.5824 30.1006 16.7069 30.1006 15.72V15.0801C30.1006 14.7295 30.0404 14.3929 29.9299 14.0801ZM38 10.7601C38 10.0311 37.409 9.4402 36.68 9.4402H19.7544C17.5185 9.4402 16.9676 6.3298 19.0674 5.5619L21.3532 4.7259C22.1885 4.4204 22.429 3.3539 21.8056 2.7195C21.47 2.378 20.9661 2.2637 20.516 2.4269L8.532 6.7726C4.61113 8.1944 2 11.9188 2 16.0894C2 21.5628 6.4371 25.9999 11.9105 25.9999H22.974C23.5262 25.9999 23.9739 25.5522 23.9739 24.9999V24.36C23.9739 23.8077 23.5262 23.36 22.9739 23.36H19.238V21.36H26.3448C26.8971 21.36 27.3448 20.9122 27.3448 20.36V19.72C27.3448 19.1678 26.8971 18.72 26.3448 18.72H21.5178V16.72H27.1006C27.6529 16.72 28.1006 16.2723 28.1006 15.72V15.0801C28.1006 14.5278 27.6529 14.0801 27.1006 14.0801H21.5178V12.0801H32.0028C32.0009 12.0536 32 12.0269 32 12C32 11.1716 32.8954 10.5 34 10.5C35.1046 10.5 36 11.1716 36 12C36 12.0269 35.9991 12.0536 35.9972 12.0801H36.68C37.409 12.0801 38 11.4891 38 10.7601Z" fill="#333333"/>
</svg>
