<svg width="25" height="25" viewBox="0 0 35 34" fill="none" xmlns="http://www.w3.org/2000/svg">
<path d="M3.29716 1.01389V2.16246" stroke="black" stroke-width="1.14858" stroke-linecap="round" stroke-linejoin="round"/>
<path d="M3.29716 4.45963V5.6082" stroke="black" stroke-width="1.14858" stroke-linecap="round" stroke-linejoin="round"/>
<path d="M1 3.31104H2.14858" stroke="black" stroke-width="1.14858" stroke-linecap="round" stroke-linejoin="round"/>
<path d="M4.44573 3.31104H5.59431" stroke="black" stroke-width="1.14858" stroke-linecap="round" stroke-linejoin="round"/>
<path d="M25.4073 5.6082C26.2002 5.6082 26.843 4.96541 26.843 4.17248C26.843 3.37955 26.2002 2.73676 25.4073 2.73676C24.6144 2.73676 23.9716 3.37955 23.9716 4.17248C23.9716 4.96541 24.6144 5.6082 25.4073 5.6082Z" stroke="black" stroke-width="1.14858" stroke-linecap="round" stroke-linejoin="round"/>
<path d="M11.1368 6.23992C11.1368 6.36134 11.1008 6.48004 11.0333 6.581C10.9659 6.68195 10.87 6.76064 10.7578 6.80711C10.6456 6.85357 10.5222 6.86573 10.4031 6.84204C10.284 6.81835 10.1746 6.75988 10.0888 6.67403C10.0029 6.58817 9.94443 6.47878 9.92074 6.35969C9.89705 6.2406 9.90921 6.11717 9.95568 6.00499C10.0021 5.89281 10.0808 5.79693 10.1818 5.72947C10.2827 5.66201 10.4014 5.62601 10.5229 5.62601C10.6857 5.62601 10.8418 5.69069 10.957 5.80582C11.0721 5.92095 11.1368 6.0771 11.1368 6.23992V6.23992Z" fill="black"/>
<path d="M34.1083 7.3885C34.1083 7.50992 34.0723 7.62861 34.0049 7.72957C33.9374 7.83053 33.8415 7.90921 33.7294 7.95568C33.6172 8.00215 33.4937 8.0143 33.3746 7.99062C33.2556 7.96693 33.1462 7.90846 33.0603 7.8226C32.9745 7.73674 32.916 7.62735 32.8923 7.50827C32.8686 7.38918 32.8808 7.26574 32.9272 7.15356C32.9737 7.04138 33.0524 6.9455 33.1533 6.87805C33.2543 6.81059 33.373 6.77458 33.4944 6.77458C33.6572 6.77458 33.8134 6.83926 33.9285 6.95439C34.0437 7.06952 34.1083 7.22568 34.1083 7.3885V7.3885Z" fill="black"/>
<path d="M19.8505 28.5539L17.1232 31.2789C16.5308 31.8712 15.7274 32.204 14.8898 32.204C14.0521 32.204 13.2487 31.8712 12.6563 31.2789C12.064 30.6866 11.7313 29.8832 11.7313 29.0455C11.7313 28.2078 12.064 27.4044 12.6563 26.8121L25.6514 13.8205C26.2437 13.2282 27.0471 12.8954 27.8848 12.8954C28.7224 12.8954 29.5258 13.2282 30.1182 13.8205C30.7105 14.4129 31.0433 15.2163 31.0433 16.0539C31.0433 16.8916 30.7105 17.695 30.1182 18.2873L25.5135 22.892" stroke="black" stroke-width="1.14858" stroke-linecap="round" stroke-linejoin="round"/>
<path d="M7.31718 26.1993V32.0255" stroke="black" stroke-width="1.14858" stroke-linecap="round" stroke-linejoin="round"/>
<path d="M5.02002 32.5998H9.61433" stroke="black" stroke-width="1.14858" stroke-linecap="round" stroke-linejoin="round"/>
<path d="M1.77759 18.1461C0.535975 21.7457 2.97441 25.6836 6.7739 25.9311C6.91135 25.9403 7.05014 25.9449 7.19026 25.9449C8.00263 25.9471 8.80764 25.7911 9.56035 25.4855C10.8593 24.9249 11.9093 23.91 12.5137 22.6308C13.118 21.3516 13.2353 19.896 12.8436 18.5366L11.5336 13.6482H3.28165L1.77759 18.1461Z" stroke="black" stroke-width="1.14858" stroke-linecap="round" stroke-linejoin="round"/>
<path d="M12.7482 18.1851C11.096 18.6718 9.51826 19.3827 8.05916 20.2979C5.13718 22.0024 2.8986 21.5223 1.49446 20.7723" stroke="black" stroke-width="1.14858" stroke-linejoin="round"/>
<path d="M23.6103 15.8598L27.4173 15.9454" stroke="black" stroke-width="1.14858" stroke-linecap="round" stroke-linejoin="round"/>
<path d="M19.5903 19.8799L23.3973 19.9654" stroke="black" stroke-width="1.14858" stroke-linecap="round" stroke-linejoin="round"/>
<path d="M15.5703 23.8999L18.803 23.9424" stroke="black" stroke-width="1.14858" stroke-linecap="round" stroke-linejoin="round"/>
<path d="M12.4881 27.3537L15.9315 27.4312" stroke="black" stroke-width="1.14858" stroke-linecap="round" stroke-linejoin="round"/>
<path d="M19.9515 25.7083L23.3973 22.2626L32.0116 25.7083V32.0255H19.9515V25.7083Z" stroke="black" stroke-width="1.14858" stroke-linecap="round" stroke-linejoin="round"/>
<path d="M19.9515 25.7083H25.1201V28.8669C25.1201 29.0954 25.2109 29.3145 25.3724 29.476C25.534 29.6376 25.7531 29.7283 25.9816 29.7283C26.21 29.7283 26.4291 29.6376 26.5907 29.476C26.7522 29.3145 26.843 29.0954 26.843 28.8669V27.144C26.843 27.3725 26.9338 27.5916 27.0953 27.7532C27.2569 27.9147 27.476 28.0055 27.7044 28.0055C27.9329 28.0055 28.152 27.9147 28.3136 27.7532C28.4751 27.5916 28.5659 27.3725 28.5659 27.144V25.7083H32.0116" stroke="black" stroke-width="1.14858" stroke-linejoin="round"/>
</svg>
