<svg width="16" height="20" viewBox="0 0 16 20" fill="none" xmlns="http://www.w3.org/2000/svg">
<path d="M11.3381 5.0465C11.3381 5.23304 11.3254 5.41958 11.3022 5.60399C11.3128 5.5298 11.3233 5.45349 11.3318 5.3793C11.2811 5.74813 11.184 6.10637 11.0425 6.44976C11.07 6.38193 11.0995 6.3141 11.127 6.24627C10.9855 6.58119 10.8039 6.89491 10.5822 7.18319C10.6266 7.12596 10.6709 7.06872 10.7152 7.01149C10.4957 7.29553 10.2402 7.55202 9.95725 7.77247C10.0143 7.72796 10.0713 7.68344 10.1283 7.63893C9.84112 7.85938 9.52864 8.0438 9.19503 8.18582C9.2626 8.15826 9.33016 8.12859 9.39773 8.10103C9.05568 8.24305 8.69885 8.34056 8.33147 8.39143C8.40537 8.38083 8.48138 8.37024 8.55527 8.36176C8.18578 8.41051 7.81417 8.41051 7.44467 8.36176C7.51857 8.37235 7.59458 8.38295 7.66848 8.39143C7.3011 8.34056 6.94427 8.24305 6.60222 8.10103C6.66978 8.12859 6.73735 8.15826 6.80491 8.18582C6.47131 8.0438 6.15882 7.8615 5.87167 7.63893C5.92868 7.68344 5.98569 7.72796 6.0427 7.77247C5.75977 7.55202 5.50428 7.29553 5.2847 7.01149C5.32904 7.06872 5.37338 7.12596 5.41772 7.18319C5.19813 6.89491 5.01444 6.58119 4.87297 6.24627C4.90042 6.3141 4.92998 6.38193 4.95743 6.44976C4.81596 6.10637 4.71884 5.74813 4.66817 5.3793C4.67872 5.45349 4.68928 5.5298 4.69773 5.60399C4.64916 5.23304 4.64916 4.85997 4.69773 4.48902C4.68717 4.56321 4.67661 4.63952 4.66817 4.71371C4.71884 4.34487 4.81596 3.98664 4.95743 3.64324C4.92998 3.71108 4.90042 3.77891 4.87297 3.84674C5.01444 3.51182 5.19602 3.1981 5.41772 2.90982C5.37338 2.96705 5.32904 3.02428 5.2847 3.08152C5.50428 2.79747 5.75977 2.54099 6.0427 2.32053C5.98569 2.36505 5.92868 2.40956 5.87167 2.45408C6.15882 2.23363 6.47131 2.04921 6.80491 1.90719C6.73735 1.93474 6.66978 1.96442 6.60222 1.99198C6.94427 1.84995 7.3011 1.75245 7.66848 1.70157C7.59458 1.71217 7.51857 1.72277 7.44467 1.73125C7.81417 1.6825 8.18578 1.6825 8.55527 1.73125C8.48138 1.72065 8.40537 1.71005 8.33147 1.70157C8.69885 1.75245 9.05568 1.84995 9.39773 1.99198C9.33016 1.96442 9.2626 1.93474 9.19503 1.90719C9.52864 2.04921 9.84112 2.23151 10.1283 2.45408C10.0713 2.40956 10.0143 2.36505 9.95725 2.32053C10.2402 2.54099 10.4957 2.79747 10.7152 3.08152C10.6709 3.02428 10.6266 2.96705 10.5822 2.90982C10.8018 3.1981 10.9855 3.51182 11.127 3.84674C11.0995 3.77891 11.07 3.71108 11.0425 3.64324C11.184 3.98664 11.2811 4.34487 11.3318 4.71371C11.3212 4.63952 11.3107 4.56321 11.3022 4.48902C11.3254 4.67343 11.336 4.85997 11.3381 5.0465C11.3402 5.48953 11.7245 5.91559 12.1827 5.89439C12.6387 5.8732 13.0294 5.52132 13.0272 5.0465C13.023 4.03115 12.719 2.99249 12.1236 2.16579C11.9631 1.94322 11.7921 1.72489 11.602 1.52776C11.4099 1.3285 11.1988 1.1568 10.9792 0.989345C10.5801 0.684105 10.1346 0.459413 9.66165 0.285596C7.75505 -0.416034 5.45572 0.209285 4.16565 1.78636C3.98829 2.00257 3.81938 2.22727 3.6758 2.46891C3.53223 2.70844 3.42032 2.96281 3.31686 3.22142C3.12261 3.70048 3.02338 4.20921 2.98326 4.7243C2.90514 5.73329 3.16695 6.7868 3.69058 7.65165C4.19521 8.48682 4.95743 9.20329 5.84845 9.60816C6.11026 9.72686 6.37841 9.83709 6.65712 9.91552C6.93371 9.99183 7.21453 10.0342 7.49957 10.0681C8.01898 10.1296 8.54894 10.0872 9.06201 9.98335C11.0108 9.58484 12.643 7.89966 12.9449 5.92195C12.9892 5.63367 13.023 5.34539 13.023 5.05286C13.0251 4.60984 12.6324 4.18377 12.1785 4.20497C11.7224 4.21981 11.3381 4.57168 11.3381 5.0465ZM14.14 18.3012C13.7261 18.3012 13.3123 18.3012 12.8984 18.3012C11.9124 18.3012 10.9285 18.3012 9.94247 18.3012C8.75586 18.3012 7.56925 18.3012 6.38052 18.3012C5.35649 18.3012 4.33245 18.3012 3.30631 18.3012C2.82702 18.3012 2.34772 18.3054 1.86843 18.3012C1.81565 18.3012 1.76286 18.2969 1.71219 18.2906C1.78609 18.3012 1.8621 18.3118 1.936 18.3202C1.85154 18.3075 1.77131 18.2842 1.69319 18.2524C1.76075 18.28 1.82832 18.3096 1.89588 18.3372C1.81143 18.3012 1.7333 18.2545 1.6594 18.1973C1.71641 18.2418 1.77342 18.2863 1.83043 18.3308C1.76709 18.2778 1.70797 18.2206 1.65729 18.157C1.70163 18.2142 1.74597 18.2715 1.79031 18.3287C1.7333 18.2545 1.68896 18.1761 1.65096 18.0913C1.67841 18.1591 1.70797 18.227 1.73542 18.2948C1.70374 18.2164 1.68263 18.1337 1.66785 18.051C1.67841 18.1252 1.68896 18.2015 1.69741 18.2757C1.66363 18.0192 1.68685 17.7479 1.68685 17.4893C1.68685 17.1862 1.68685 16.8852 1.68685 16.5821C1.68685 16.3552 1.69952 16.1306 1.72908 15.9059C1.71852 15.9801 1.70797 16.0564 1.69952 16.1306C1.75864 15.696 1.87266 15.2699 2.04368 14.8651C2.01623 14.9329 1.98667 15.0007 1.95922 15.0686C2.12391 14.6828 2.33506 14.3203 2.59054 13.9875C2.5462 14.0447 2.50186 14.102 2.45752 14.1592C2.713 13.8307 3.00649 13.5339 3.33587 13.2774C3.27886 13.3219 3.22185 13.3664 3.16484 13.4109C3.49633 13.1545 3.85738 12.9425 4.24166 12.7771C4.1741 12.8047 4.10653 12.8344 4.03897 12.8619C4.44224 12.6924 4.86453 12.5758 5.29948 12.5164C5.22558 12.527 5.14957 12.5376 5.07567 12.5461C5.38816 12.5058 5.69853 12.5037 6.01313 12.5037C6.39952 12.5037 6.78591 12.5037 7.1723 12.5037C8.07387 12.5037 8.97545 12.5037 9.87702 12.5037C10.2254 12.5037 10.5717 12.5016 10.9201 12.5461C10.8462 12.5355 10.7701 12.5249 10.6962 12.5164C11.1291 12.5758 11.5535 12.6902 11.9568 12.8619C11.8892 12.8344 11.8216 12.8047 11.7541 12.7771C12.1383 12.9425 12.4994 13.1545 12.8309 13.4109C12.7739 13.3664 12.7169 13.3219 12.6599 13.2774C12.9871 13.5339 13.2827 13.8285 13.5382 14.1592C13.4939 14.102 13.4495 14.0447 13.4052 13.9875C13.6607 14.3203 13.8718 14.6828 14.0365 15.0686C14.0091 15.0007 13.9795 14.9329 13.952 14.8651C14.121 15.2699 14.2371 15.6939 14.2962 16.1306C14.2856 16.0564 14.2751 15.9801 14.2666 15.9059C14.3068 16.2259 14.3089 16.5439 14.3089 16.8661C14.3089 17.2159 14.3089 17.5656 14.3089 17.9154C14.3089 18.0362 14.3131 18.157 14.2983 18.2757C14.3089 18.2015 14.3194 18.1252 14.3279 18.051C14.3152 18.1358 14.292 18.2164 14.2603 18.2948C14.2878 18.227 14.3173 18.1591 14.3448 18.0913C14.3089 18.1761 14.2624 18.2545 14.2054 18.3287C14.2498 18.2715 14.2941 18.2142 14.3384 18.157C14.2856 18.2206 14.2286 18.28 14.1653 18.3308C14.2223 18.2863 14.2793 18.2418 14.3363 18.1973C14.2624 18.2545 14.1843 18.299 14.0998 18.3372C14.1674 18.3096 14.235 18.28 14.3025 18.2524C14.2244 18.2842 14.1421 18.3054 14.0597 18.3202C14.1336 18.3096 14.2096 18.299 14.2835 18.2906C14.2371 18.2969 14.1885 18.299 14.14 18.3012C13.9225 18.3033 13.6987 18.3944 13.5424 18.5492C13.3967 18.6954 13.2848 18.9371 13.2954 19.149C13.3165 19.6027 13.667 20.0033 14.14 19.9969C14.9613 19.9842 15.6834 19.4458 15.9241 18.6552C16.0191 18.3414 15.998 18.0044 15.998 17.6822C15.998 16.9445 16.0212 16.2132 15.8945 15.4819C15.7087 14.4115 15.1724 13.4046 14.4377 12.6139C13.7029 11.8233 12.7148 11.2425 11.6696 10.9839C11.07 10.8355 10.4661 10.8122 9.85379 10.8122C9.22459 10.8122 8.5975 10.8122 7.9683 10.8122C7.34755 10.8122 6.7289 10.8122 6.10815 10.8122C5.48106 10.8122 4.85819 10.8418 4.24799 11.0051C3.21129 11.2806 2.23582 11.8678 1.51583 12.6648C0.789503 13.4682 0.263761 14.4772 0.0927369 15.554C-0.0212793 16.2768 0.00194617 17.0018 0.00194617 17.731C0.00194617 18.0659 -0.0170565 18.4156 0.103294 18.7357C0.259538 19.1469 0.508685 19.4712 0.873959 19.715C1.159 19.9037 1.52005 19.9948 1.85788 19.9991C2.02257 20.0012 2.18726 19.9991 2.35195 19.9991C2.77423 19.9991 3.1944 19.9991 3.61668 19.9991C4.21632 19.9991 4.81385 19.9991 5.41349 19.9991C6.11026 19.9991 6.80703 19.9991 7.50379 19.9991C8.21956 19.9991 8.93322 19.9991 9.64899 19.9991C10.3035 19.9991 10.9559 19.9991 11.6105 19.9991C12.1236 19.9991 12.6366 19.9991 13.1476 19.9991C13.4411 19.9991 13.7346 19.9991 14.0281 19.9991C14.0661 19.9991 14.1041 19.9991 14.1421 19.9991C14.5834 19.9991 15.0077 19.609 14.9866 19.1512C14.9655 18.6891 14.615 18.3012 14.14 18.3012Z" fill="#656565"/>
</svg>
