<?xml version="1.0" encoding="iso-8859-1"?>
<!-- Generator: Adobe Illustrator 19.0.0, SVG Export Plug-In . SVG Version: 6.00 Build 0)  -->
<svg
  width =" 20px"
    height="20px" version="1.1" id="Layer_1" xmlns="http://www.w3.org/2000/svg" xmlns:xlink="http://www.w3.org/1999/xlink" x="0px" y="0px"
	 viewBox="0 0 500 500" style="enable-background:new 0 0 500 500;" xml:space="preserve">

<g>
	<g>
		<path d="M425.716,0H74.288c-10.82,0-19.62,8.8-19.62,19.62v460.76c0,10.82,8.8,19.62,19.62,19.62H425.72
			c10.816,0,19.616-8.8,19.612-19.62V19.62C445.332,8.8,436.532,0,425.716,0z M437.332,480.38c0,6.408-5.208,11.62-11.616,11.62
			H74.288c-6.404,0-11.62-5.212-11.62-11.62V19.62C62.668,13.212,67.88,8,74.288,8h351.428c6.404,0,11.616,5.212,11.616,11.62
			V480.38z"/>
	</g>
</g>
<g>
	<g>
		<path d="M406.196,136.668H97.72c-2.212,0-4,1.792-4,4c0,2.208,1.788,4,4,4h308.476c2.212,0,4-1.792,4-4
			C410.196,138.46,408.408,136.668,406.196,136.668z"/>
	</g>
</g>
<g>
	<g>
		<path d="M406.196,42.952H58.668c-2.212,0-4,1.792-4,4c0,2.208,1.788,4,4,4h347.528c2.212,0,4-1.792,4-4
			C410.196,44.744,408.408,42.952,406.196,42.952z"/>
	</g>
</g>
<g>
	<g>
		<path d="M160.196,175.716H97.72c-2.212,0-4,1.792-4,4s1.788,4,4,4h62.476c2.212,0,4-1.792,4-4S162.408,175.716,160.196,175.716z"
			/>
	</g>
</g>
<g>
	<g>
		<path d="M406.196,175.716h-214.76c-2.212,0-4,1.792-4,4s1.788,4,4,4h214.76c2.212,0,4-1.792,4-4S408.408,175.716,406.196,175.716z
			"/>
	</g>
</g>
<g>
	<g>
		<path d="M406.196,214.76H343.72c-2.212,0-4,1.792-4,4c0,2.208,1.788,4,4,4h62.476c2.212,0,4-1.792,4-4
			C410.196,216.552,408.408,214.76,406.196,214.76z"/>
	</g>
</g>
<g>
	<g>
		<path d="M308.576,214.76H97.72c-2.212,0-4,1.792-4,4c0,2.208,1.788,4,4,4h210.856c2.208,0,4-1.792,4-4
			C312.576,216.552,310.788,214.76,308.576,214.76z"/>
	</g>
</g>
<g>
	<g>
		<path d="M406.196,253.808H97.72c-2.212,0-4,1.792-4,4c0,2.208,1.788,4,4,4h308.476c2.212,0,4-1.792,4-4
			S408.408,253.808,406.196,253.808z"/>
	</g>
</g>
<g>
	<g>
		<path d="M406.196,370.952H97.72c-2.212,0-4,1.792-4,4s1.788,4,4,4h308.476c2.212,0,4-1.792,4-4S408.408,370.952,406.196,370.952z"
			/>
	</g>
</g>
<g>
	<g>
		<path d="M160.196,292.856H97.72c-2.212,0-4,1.792-4,4s1.788,4,4,4h62.476c2.212,0,4-1.792,4-4S162.408,292.856,160.196,292.856z"
			/>
	</g>
</g>
<g>
	<g>
		<path d="M406.196,292.856h-214.76c-2.212,0-4,1.792-4,4s1.788,4,4,4h214.76c2.212,0,4-1.792,4-4S408.408,292.856,406.196,292.856z
			"/>
	</g>
</g>
<g>
	<g>
		<path d="M406.196,331.904H343.72c-2.212,0-4,1.792-4,4s1.788,4,4,4h62.476c2.212,0,4-1.792,4-4S408.408,331.904,406.196,331.904z"
			/>
	</g>
</g>
<g>
	<g>
		<path d="M308.576,331.904H97.72c-2.212,0-4,1.792-4,4s1.788,4,4,4h210.856c2.208,0,4-1.792,4-4S310.788,331.904,308.576,331.904z"
			/>
	</g>
</g>
<g>
	<g>
		<path d="M160.196,410H97.72c-2.212,0-4,1.792-4,4s1.788,4,4,4h62.476c2.212,0,4-1.792,4-4S162.408,410,160.196,410z"/>
	</g>
</g>
<g>
	<g>
		<path d="M406.196,410h-214.76c-2.212,0-4,1.792-4,4s1.788,4,4,4h214.76c2.212,0,4-1.792,4-4S408.408,410,406.196,410z"/>
	</g>
</g>
<g>
	<g>
		<path d="M418.72,20.32c-1.48-1.52-4.16-1.48-5.64,0c-0.756,0.72-1.16,1.76-1.16,2.84c0,1.04,0.404,2.08,1.16,2.8
			c0.724,0.76,1.76,1.2,2.84,1.2c1.044,0,2.084-0.44,2.8-1.2c0.764-0.72,1.2-1.76,1.2-2.8C419.92,22.08,419.48,21.08,418.72,20.32z"
			/>
	</g>
</g>
<g>
	<g>
		<path d="M336.72,20.32c-1.48-1.48-4.16-1.48-5.64,0c-0.756,0.72-1.16,1.76-1.16,2.84c0,1.04,0.404,2.08,1.16,2.8
			c0.724,0.76,1.76,1.2,2.84,1.2c1.044,0,2.084-0.44,2.8-1.2c0.764-0.72,1.2-1.76,1.2-2.8C337.92,22.08,337.48,21.08,336.72,20.32z"
			/>
	</g>
</g>
<g>
	<g>
		<path d="M282.084,20.32c-1.48-1.48-4.2-1.48-5.68,0c-0.72,0.72-1.16,1.76-1.16,2.84c0,1.04,0.44,2.08,1.16,2.8
			c0.76,0.76,1.8,1.2,2.84,1.2c1.036,0,2.08-0.44,2.84-1.2c0.724-0.72,1.16-1.76,1.16-2.8
			C283.244,22.08,282.808,21.08,282.084,20.32z"/>
	</g>
</g>
<g>
	<g>
		<path d="M227.404,20.32c-1.48-1.48-4.16-1.48-5.68,0c-0.72,0.76-1.16,1.76-1.16,2.84c0,1.04,0.444,2.08,1.2,2.8
			c0.72,0.76,1.76,1.2,2.8,1.2c1.08,0,2.08-0.44,2.84-1.2c0.76-0.72,1.16-1.76,1.16-2.8C228.564,22.12,228.164,21.08,227.404,20.32z
			"/>
	</g>
</g>
<g>
	<g>
		<path d="M172.72,20.32c-1.48-1.48-4.16-1.48-5.64,0c-0.756,0.76-1.16,1.76-1.16,2.84c0,1.04,0.404,2.08,1.16,2.8
			c0.76,0.76,1.76,1.2,2.84,1.2c1.044,0,2.084-0.44,2.8-1.2c0.764-0.72,1.2-1.76,1.2-2.8C173.92,22.08,173.48,21.08,172.72,20.32z"
			/>
	</g>
</g>
<g>
	<g>
		<path d="M391.404,20.32c-1.48-1.48-4.16-1.48-5.64,0c-0.76,0.72-1.2,1.76-1.2,2.84c0,1.04,0.444,2.08,1.2,2.8
			c0.72,0.76,1.76,1.2,2.8,1.2c1.08,0,2.12-0.44,2.84-1.2c0.76-0.76,1.16-1.76,1.16-2.8C392.564,22.08,392.164,21.08,391.404,20.32z
			"/>
	</g>
</g>
<g>
	<g>
		<path d="M364.084,20.32c-1.48-1.48-4.2-1.48-5.68,0c-0.72,0.72-1.16,1.76-1.16,2.84c0,1.04,0.44,2.08,1.16,2.84
			c0.76,0.72,1.8,1.16,2.84,1.16c1.036,0,2.08-0.44,2.84-1.2c0.724-0.72,1.16-1.76,1.16-2.8
			C365.244,22.08,364.808,21.08,364.084,20.32z"/>
	</g>
</g>
<g>
	<g>
		<path d="M309.404,20.32c-1.48-1.48-4.16-1.48-5.64,0c-0.76,0.72-1.2,1.76-1.2,2.8c0,1.08,0.444,2.12,1.2,2.84
			c0.72,0.76,1.76,1.2,2.8,1.2c1.08,0,2.08-0.44,2.84-1.2c0.76-0.72,1.16-1.76,1.16-2.84C310.564,22.08,310.164,21.08,309.404,20.32
			z"/>
	</g>
</g>
<g>
	<g>
		<path d="M254.72,20.32c-1.44-1.48-4.16-1.48-5.64,0c-0.756,0.72-1.16,1.76-1.16,2.84c0,1.04,0.404,2.08,1.16,2.8
			c0.76,0.76,1.76,1.2,2.84,1.2c1.044,0,2.084-0.44,2.8-1.2c0.764-0.72,1.2-1.76,1.2-2.8C255.92,22.08,255.48,21.04,254.72,20.32z"
			/>
	</g>
</g>
<g>
	<g>
		<path d="M200.084,20.32c-1.52-1.52-4.2-1.48-5.68,0c-0.72,0.72-1.16,1.76-1.16,2.84c0,1.04,0.44,2.04,1.16,2.8
			c0.76,0.76,1.8,1.2,2.84,1.2c1.036,0,2.08-0.44,2.84-1.2c0.724-0.76,1.16-1.76,1.16-2.8
			C201.244,22.08,200.808,21.08,200.084,20.32z"/>
	</g>
</g>
<g>
	<g>
		<path d="M145.404,20.32c-1.52-1.52-4.16-1.48-5.64,0c-0.76,0.72-1.2,1.76-1.2,2.84c0,1.04,0.444,2.08,1.2,2.8
			c0.72,0.76,1.76,1.2,2.8,1.2c1.036,0,2.08-0.44,2.84-1.2c0.76-0.72,1.16-1.76,1.16-2.8C146.564,22.08,146.164,21.08,145.404,20.32
			z"/>
	</g>
</g>
<g>
	<g>
		<path d="M118.084,20.32c-1.52-1.48-4.16-1.48-5.68,0c-0.72,0.72-1.16,1.76-1.16,2.84c0,1.04,0.44,2.08,1.16,2.8
			c0.76,0.76,1.8,1.2,2.84,1.2c1.036,0,2.08-0.44,2.84-1.2c0.724-0.72,1.16-1.76,1.16-2.8
			C119.244,22.08,118.808,21.04,118.084,20.32z"/>
	</g>
</g>
<g>
	<g>
		<path d="M90.72,20.32c-1.48-1.48-4.16-1.48-5.64,0c-0.756,0.72-1.16,1.76-1.16,2.84c0,1.04,0.404,2.08,1.16,2.8
			c0.724,0.76,1.76,1.2,2.84,1.2c1.044,0,2.084-0.44,2.8-1.2c0.764-0.72,1.2-1.76,1.2-2.8C91.92,22.08,91.48,21.04,90.72,20.32z"/>
	</g>
</g>
<g>
</g>
<g>
</g>
<g>
</g>
<g>
</g>
<g>
</g>
<g>
</g>
<g>
</g>
<g>
</g>
<g>
</g>
<g>
</g>
<g>
</g>
<g>
</g>
<g>
</g>
<g>
</g>
<g>
</g>
</svg>
