<svg width="18" height="18" viewBox="0 0 16 16" fill="none" xmlns="http://www.w3.org/2000/svg">
<g clip-path="url(#clip0_167_1816)">
<rect width="16" height="16" fill="white"/>
<path d="M15.6463 6.80001C15.0799 6.35361 14.0223 6.73441 13.1983 7.64961C12.4287 7.43521 11.7455 7.48801 11.1631 7.81601C10.0479 8.44481 9.62554 9.89121 9.46873 10.9904C9.44473 11.16 9.42234 11.3328 9.39834 11.5056C9.14874 13.408 8.91193 15.2064 6.65593 15.2064C6.61913 15.2064 6.58233 15.2064 6.54393 15.2048C5.90393 15.1888 5.44313 14.9904 5.13593 14.5968C4.56953 13.8704 4.66713 12.6832 4.73913 12.1904C4.96313 12.0896 5.12153 11.8688 5.12953 11.608L5.16313 10.6336L6.35833 10.2784C6.50713 10.2336 6.62233 10.1392 6.70553 10.0224C6.91993 10.0704 7.18713 10.0592 7.37593 9.94081C7.70713 9.73441 8.19034 9.33761 8.79193 8.58721C9.44954 7.76641 9.61114 7.10561 9.62714 6.67681C9.63514 6.37121 9.42233 6.06081 9.26394 5.97441C9.10553 5.88801 9.07674 6.04961 9.10713 6.35361C9.15194 6.81121 9.07994 7.50721 8.48953 8.26401C8.47833 8.27681 8.46873 8.28641 8.45914 8.29921L8.46393 8.26561C8.60474 8.04801 8.72634 7.81921 8.81913 7.57441C9.77914 5.03201 7.70393 2.06561 7.61433 1.94081C7.59513 1.91361 7.56953 1.89601 7.54393 1.87521C7.60313 1.73921 7.58873 1.61601 7.48953 1.55201C7.33433 1.45121 7.09113 1.14881 6.95033 0.876809L6.70073 0.400008C6.56153 0.129608 6.26713 0.0816085 6.04633 0.292808L5.42713 0.894409C5.20473 1.10561 5.24793 1.39201 5.51833 1.53441L5.95513 1.75841C6.22553 1.90081 6.52153 2.15681 6.61753 2.33121C6.68953 2.46081 6.85593 2.48001 7.02713 2.39201C7.20313 2.64801 8.91193 5.24161 8.12793 7.31681C8.09593 7.40161 8.04633 7.48001 8.00473 7.56161L7.99993 7.56321C7.95193 7.55201 7.90553 7.53441 7.85593 7.53441C7.73273 7.53441 7.61753 7.57121 7.52153 7.63201L7.66713 7.77121C7.57913 7.87841 7.51993 8.00961 7.51993 8.15841C7.51993 8.19521 7.52793 8.23041 7.53433 8.26561C7.25913 8.56641 6.91513 8.83521 6.49913 9.06401C6.34553 8.97761 6.15993 8.95041 5.97913 9.00481L4.52313 9.43681L2.96473 8.94401C2.78713 8.88801 2.60153 8.91201 2.44953 8.99521C1.70713 8.55521 1.20153 7.99361 0.943934 7.31681C0.123134 5.14241 2.04153 2.39681 2.06073 2.36961C2.06233 2.36481 2.06233 2.36001 2.06713 2.35521C2.06713 2.35521 2.11193 2.39841 2.16793 2.44801C2.22393 2.50081 2.34553 2.40161 2.44153 2.22721C2.53593 2.05121 2.83513 1.79521 3.10553 1.65441L3.54073 1.42881C3.81273 1.28801 3.85433 1.00161 3.63353 0.788809L3.01273 0.188808C2.79193 -0.0239915 2.50073 0.0240085 2.35833 0.296008L2.11033 0.772808C1.96793 1.04481 1.72633 1.34561 1.57113 1.44801C1.41273 1.54721 1.34393 1.68321 1.41273 1.74721L1.53913 1.86561C1.50873 1.88641 1.48153 1.90881 1.45753 1.94081C1.36793 2.06561 -0.707266 5.03201 0.252734 7.57441C0.575934 8.42561 1.19673 9.11841 2.10553 9.64641C2.12953 9.90081 2.30393 10.128 2.56313 10.2112L3.83513 10.6128L3.80153 11.5616C3.79673 11.7584 3.87833 11.9376 4.00953 12.0656C3.92153 12.6528 3.80473 14.0896 4.55193 15.048C4.99833 15.6208 5.66233 15.9216 6.52633 15.9424C6.57273 15.9456 6.61753 15.9456 6.66233 15.9456C9.55993 15.9456 9.87674 13.5408 10.1311 11.6032C10.1535 11.4336 10.1759 11.264 10.1999 11.096C10.3887 9.77281 10.8591 8.83681 11.5263 8.46081C11.8607 8.27041 12.2623 8.21761 12.7199 8.29761C12.1455 9.24641 12.0735 10.2368 12.5967 10.6528C13.2031 11.1328 14.3775 10.6592 15.2191 9.59521C16.0607 8.53121 16.2511 7.28001 15.6463 6.80001ZM8.35353 8.42561C8.30394 8.48481 8.25434 8.54881 8.20634 8.60321C8.25434 8.54241 8.30233 8.48161 8.34714 8.41921L8.35353 8.42561ZM14.1375 8.71521C13.8223 9.11521 13.3823 9.29281 13.1551 9.11201C12.9887 8.98081 12.9839 8.69441 13.1151 8.39361C13.2351 8.43201 13.3567 8.47361 13.4815 8.52641C13.6719 8.60641 13.8863 8.52001 13.9663 8.33121C14.0463 8.14401 13.9583 7.92641 13.7695 7.84641C13.7135 7.82241 13.6607 7.80481 13.6047 7.78561C13.8623 7.59681 14.1327 7.53921 14.2943 7.66881C14.5231 7.84961 14.4511 8.31841 14.1375 8.71521Z" fill="#4F4F4F"/>
</g>
<defs>
<clipPath id="clip0_167_1816">
<rect width="16" height="16" fill="white"/>
</clipPath>
</defs>
</svg>
