<svg width="16" height="18" viewBox="0 0 16 18" fill="none" xmlns="http://www.w3.org/2000/svg">
<path d="M4 3.52088V0.989011C4 0.435165 4.41905 0 4.95238 0C5.48571 0 5.90476 0.435165 5.90476 0.989011V3.52088C5.90476 4.07473 5.48571 4.50989 4.95238 4.50989C4.41905 4.50989 4 4.07473 4 3.52088ZM11.0476 4.50989C11.581 4.50989 12 4.07473 12 3.52088V0.989011C12 0.435165 11.581 0 11.0476 0C10.5143 0 10.0952 0.435165 10.0952 0.989011V3.52088C10.0952 4.07473 10.5143 4.50989 11.0476 4.50989ZM4.60952 7.91209H11.3714C11.7905 7.91209 12.1333 7.55604 12.1333 7.12088C12.1333 6.68571 11.7905 6.32967 11.3714 6.32967H4.60952C4.19048 6.32967 3.84762 6.68571 3.84762 7.12088C3.84762 7.55604 4.19048 7.91209 4.60952 7.91209ZM15.2381 1.38462H13.6571C13.2381 1.38462 12.8952 1.74066 12.8952 2.17582C12.8952 2.61099 13.2381 2.96703 13.6571 2.96703H14.4762V16.4176H1.52381V2.96703H2.34286C2.7619 2.96703 3.10476 2.61099 3.10476 2.17582C3.10476 1.74066 2.7619 1.38462 2.34286 1.38462H0.761905C0.342857 1.38462 0 1.81978 0 2.25495V17.2088C0 17.644 0.342857 18 0.761905 18H15.2381C15.6571 18 16 17.644 16 17.2088V2.25495C16 1.81978 15.6571 1.38462 15.2381 1.38462ZM7.37143 2.96703H8.62857C9.04762 2.96703 9.39048 2.61099 9.39048 2.17582C9.39048 1.74066 9.04762 1.38462 8.62857 1.38462H7.37143C6.95238 1.38462 6.60952 1.74066 6.60952 2.17582C6.60952 2.61099 6.95238 2.96703 7.37143 2.96703ZM4.60952 11.4725H11.3714C11.7905 11.4725 12.1333 11.1165 12.1333 10.6813C12.1333 10.2462 11.7905 9.89011 11.3714 9.89011H4.60952C4.19048 9.89011 3.84762 10.2462 3.84762 10.6813C3.84762 11.1165 4.19048 11.4725 4.60952 11.4725Z" fill="#484848"/>
</svg>
